<?xml version="1.0" encoding="iso-8859-1"?>
<!-- Generator: Adobe Illustrator 19.0.0, SVG Export Plug-In . SVG Version: 6.00 Build 0)  -->
<svg version="1.1" id="Layer_1" xmlns="http://www.w3.org/2000/svg" xmlns:xlink="http://www.w3.org/1999/xlink" x="0px" y="0px"
	 viewBox="0 0 512 512" style="enable-background:new 0 0 512 512;" xml:space="preserve">
<path style="fill:#DF7A6E;" d="M461.228,164.61h-22.447v16.033h14.43v26.722h-14.43v16.033h22.447c4.428,0,8.017-3.589,8.017-8.017
	v-42.756C469.244,168.199,465.656,164.61,461.228,164.61z"/>
<path style="fill:#FF8C78;" d="M435.574,156.058h-51.307c-4.428,0-8.017,3.589-8.017,8.017v51.307
	c0,13.851,11.268,25.119,25.119,25.119h17.102c13.851,0,25.119-11.268,25.119-25.119v-51.307
	C443.591,159.648,440.003,156.058,435.574,156.058z"/>
<path style="fill:#DF7A6E;" d="M392.818,181.712c0-8.994,1.367-17.622,3.854-25.653h-12.406c-4.428,0-8.017,3.589-8.017,8.017
	v51.307c0,13.851,11.268,25.119,25.119,25.119h15.314C402.08,226.289,392.818,205.232,392.818,181.712z"/>
<path style="fill:#D9DCDF;" d="M315.324,25.119C315.324,11.268,304.055,0,290.205,0H50.772C36.922,0,25.653,11.268,25.653,25.119
	V159.8h289.67V25.119z"/>
<rect x="145.37" y="207.365" style="fill:#8E959F;" width="50.238" height="36.164"/>
<rect x="145.37" y="207.9" style="fill:#68727E;" width="50.238" height="13.896"/>
<path style="fill:#8E959F;" d="M315.324,153.386H25.653v34.205c0,13.873,11.246,25.119,25.119,25.119h239.432
	c13.873,0,25.119-11.246,25.119-25.119V153.386z"/>
<path style="fill:#424F5E;" d="M179.04,187.056h-17.102c-4.428,0-8.017-3.589-8.017-8.017s3.588-8.017,8.017-8.017h17.102
	c4.428,0,8.017,3.589,8.017,8.017S183.468,187.056,179.04,187.056z"/>
<path style="fill:#FFC44F;" d="M59.324,273.637H25.119c-4.428,0-8.017,3.589-8.017,8.017v222.33c0,4.427,3.588,8.017,8.017,8.017
	h34.205c4.428,0,8.017-3.589,8.017-8.017v-222.33C67.34,277.226,63.752,273.637,59.324,273.637z"/>
<path style="fill:#F7B14D;" d="M33.67,503.983v-222.33c0-4.427,3.588-8.017,8.017-8.017H25.119c-4.428,0-8.017,3.589-8.017,8.017
	v222.33c0,4.427,3.588,8.017,8.017,8.017h16.568C37.258,512,33.67,508.411,33.67,503.983z"/>
<path style="fill:#FFC44F;" d="M452.676,376.251H281.653c-4.428,0-8.017,3.589-8.017,8.017v59.858c0,4.427,3.588,8.017,8.017,8.017
	h171.023c4.428,0,8.017-3.589,8.017-8.017v-59.858C460.693,379.84,457.105,376.251,452.676,376.251z"/>
<path style="fill:#F7B14D;" d="M452.676,282.188H281.653c-4.428,0-8.017,3.589-8.017,8.017v102.614h187.056V290.205
	C460.693,285.777,457.105,282.188,452.676,282.188z"/>
<g>
	<rect x="273.637" y="284.86" style="fill:#FFC44F;" width="187.056" height="99.407"/>
	<path style="fill:#FFC44F;" d="M444.66,284.86v219.123c0,4.427,3.588,8.017,8.017,8.017h34.205c4.428,0,8.017-3.589,8.017-8.017
		V284.86H444.66z"/>
</g>
<g>
	<path style="fill:#F7B14D;" d="M461.228,503.983V284.86H444.66v219.123c0,4.427,3.588,8.017,8.017,8.017h16.568
		C464.816,512,461.228,508.411,461.228,503.983z"/>
	<path style="fill:#F7B14D;" d="M17.12,281.298c-0.005,0.119-0.018,0.235-0.018,0.356v19.24H67.34v-19.24
		c0-0.121-0.013-0.237-0.018-0.356H17.12z"/>
	<rect x="444.66" y="284.86" style="fill:#F7B14D;" width="50.238" height="16.033"/>
	<rect x="273.637" y="284.86" style="fill:#F7B14D;" width="187.056" height="16.033"/>
</g>
<path style="fill:#FFC44F;" d="M503.983,239.432H8.017c-4.428,0-8.017,3.589-8.017,8.017v34.205c0,4.427,3.588,8.017,8.017,8.017
	h495.967c4.428,0,8.017-3.589,8.017-8.017v-34.205C512,243.021,508.412,239.432,503.983,239.432z"/>
<path style="fill:#8E959F;" d="M495.432,105.286H341.511c-4.428,0-8.017,3.589-8.017,8.017c0,4.427,3.588,8.017,8.017,8.017h153.921
	c4.428,0,8.017-3.589,8.017-8.017C503.449,108.875,499.861,105.286,495.432,105.286z"/>
<path style="fill:#FFC44F;" d="M381.061,105.077h-19.24c-1.771,0-3.207-1.436-3.207-3.207v-96.2c0-1.771,1.435-3.207,3.207-3.207
	h19.24c1.771,0,3.207,1.436,3.207,3.207v96.2C384.267,103.641,382.832,105.077,381.061,105.077z"/>
<path style="fill:#F7B14D;" d="M367.165,101.87v-96.2c0-1.771,1.435-3.207,3.207-3.207h-8.551c-1.771,0-3.207,1.436-3.207,3.207
	v96.2c0,1.771,1.435,3.207,3.207,3.207h8.551C368.6,105.077,367.165,103.641,367.165,101.87z"/>
<path style="fill:#FFD791;" d="M415.265,105.077h-19.24c-1.771,0-3.207-1.436-3.207-3.207v-96.2c0-1.771,1.435-3.207,3.207-3.207
	h19.24c1.771,0,3.207,1.436,3.207,3.207v96.2C418.472,103.641,417.036,105.077,415.265,105.077z"/>
<path style="fill:#FFC44F;" d="M401.37,101.87v-96.2c0-1.771,1.436-3.207,3.207-3.207h-8.551c-1.771,0-3.207,1.436-3.207,3.207v96.2
	c0,1.771,1.435,3.207,3.207,3.207h8.551C402.805,105.077,401.37,103.641,401.37,101.87z"/>
<path style="fill:#FF8C78;" d="M466.63,100.842l-18.895,3.63c-1.739,0.335-3.42-0.805-3.754-2.544L425.83,7.454
	c-0.335-1.739,0.805-3.42,2.544-3.754l18.895-3.63c1.739-0.335,3.42,0.805,3.754,2.544l18.151,94.472
	C469.508,98.827,468.369,100.507,466.63,100.842z"/>
<path style="fill:#DF7A6E;" d="M428.374,3.701c-1.739,0.335-2.879,2.015-2.544,3.754l18.151,94.472
	c0.335,1.739,2.015,2.879,3.754,2.544l6.736-1.294L435.309,2.369L428.374,3.701z"/>
<path style="fill:#68727E;" d="M367.165,307.841c-13.851,0-25.119,11.268-25.119,25.119c0,13.851,11.268,25.119,25.119,25.119
	c13.851,0,25.119-11.268,25.119-25.119C392.284,319.11,381.016,307.841,367.165,307.841z"/>
<path style="fill:#B3B9BF;" d="M367.165,315.858c-9.43,0-17.102,7.673-17.102,17.102c0,9.43,7.673,17.102,17.102,17.102
	c9.43,0,17.102-7.673,17.102-17.102C384.267,323.531,376.595,315.858,367.165,315.858z"/>
<g>
</g>
<g>
</g>
<g>
</g>
<g>
</g>
<g>
</g>
<g>
</g>
<g>
</g>
<g>
</g>
<g>
</g>
<g>
</g>
<g>
</g>
<g>
</g>
<g>
</g>
<g>
</g>
<g>
</g>
</svg>
